<svg width="20" height="20" viewBox="0 0 20 20" fill="none" xmlns="http://www.w3.org/2000/svg">
<path d="M4.87496 14.2501C5.58329 13.7084 6.37496 13.2813 7.24996 12.9688C8.12496 12.6563 9.04163 12.5001 9.99996 12.5001C10.9583 12.5001 11.875 12.6563 12.75 12.9688C13.625 13.2813 14.4166 13.7084 15.125 14.2501C15.6111 13.6806 15.9895 13.0348 16.2604 12.3126C16.5312 11.5904 16.6666 10.8195 16.6666 10.0001C16.6666 8.15286 16.0173 6.57994 14.7187 5.28133C13.4201 3.98272 11.8472 3.33341 9.99996 3.33341C8.15274 3.33341 6.57982 3.98272 5.28121 5.28133C3.9826 6.57994 3.33329 8.15286 3.33329 10.0001C3.33329 10.8195 3.46871 11.5904 3.73954 12.3126C4.01038 13.0348 4.38885 13.6806 4.87496 14.2501ZM9.99996 10.8334C9.18052 10.8334 8.48954 10.5522 7.92704 9.98967C7.36454 9.42717 7.08329 8.73619 7.08329 7.91675C7.08329 7.0973 7.36454 6.40633 7.92704 5.84383C8.48954 5.28133 9.18052 5.00008 9.99996 5.00008C10.8194 5.00008 11.5104 5.28133 12.0729 5.84383C12.6354 6.40633 12.9166 7.0973 12.9166 7.91675C12.9166 8.73619 12.6354 9.42717 12.0729 9.98967C11.5104 10.5522 10.8194 10.8334 9.99996 10.8334ZM9.99996 18.3334C8.84718 18.3334 7.76385 18.1147 6.74996 17.6772C5.73607 17.2397 4.85413 16.6459 4.10413 15.8959C3.35413 15.1459 2.76038 14.264 2.32288 13.2501C1.88538 12.2362 1.66663 11.1529 1.66663 10.0001C1.66663 8.8473 1.88538 7.76397 2.32288 6.75008C2.76038 5.73619 3.35413 4.85425 4.10413 4.10425C4.85413 3.35425 5.73607 2.7605 6.74996 2.323C7.76385 1.8855 8.84718 1.66675 9.99996 1.66675C11.1527 1.66675 12.2361 1.8855 13.25 2.323C14.2638 2.7605 15.1458 3.35425 15.8958 4.10425C16.6458 4.85425 17.2395 5.73619 17.677 6.75008C18.1145 7.76397 18.3333 8.8473 18.3333 10.0001C18.3333 11.1529 18.1145 12.2362 17.677 13.2501C17.2395 14.264 16.6458 15.1459 15.8958 15.8959C15.1458 16.6459 14.2638 17.2397 13.25 17.6772C12.2361 18.1147 11.1527 18.3334 9.99996 18.3334Z" fill="#1D1B20"/>
</svg>
