<svg width="13" height="13" viewBox="0 0 13 13" fill="none" xmlns="http://www.w3.org/2000/svg">
<path d="M1.34272 9.09891H3.25763L2.68629 11.9366C2.67374 12.0028 2.66746 12.0701 2.66754 12.1375C2.66754 12.445 2.88075 12.6145 3.17593 12.6145C3.47727 12.6145 3.69692 12.4511 3.75986 12.1436L4.37486 9.09891H7.34433L6.77325 11.9366C6.75451 11.9993 6.74834 12.0748 6.74834 12.1375C6.74834 12.445 6.96183 12.6145 7.26317 12.6145C7.5645 12.6145 7.78415 12.4511 7.84709 12.1436L8.4554 9.09891H10.6966C11.0418 9.09891 11.2805 8.84793 11.2805 8.50883C11.2805 8.23266 11.0922 8.00659 10.8096 8.00659H8.6812L9.34736 4.69186H11.5446C11.8901 4.69186 12.1285 4.44088 12.1285 4.10177C12.1285 3.82561 11.9402 3.59954 11.6576 3.59954H9.56701L10.0818 1.06963C10.088 1.03186 10.1006 0.950165 10.1006 0.868736C10.1006 0.560968 9.88093 0.385254 9.57959 0.385254C9.22817 0.385254 9.0712 0.579718 9.00825 0.874897L8.45593 3.59954H5.4862L6.00102 1.06963C6.00718 1.03186 6.01977 0.950165 6.01977 0.868736C6.01977 0.560968 5.7937 0.385254 5.49879 0.385254C5.14093 0.385254 4.97754 0.579718 4.92102 0.874897L4.3687 3.59954H2.30968C1.96415 3.59954 1.72575 3.86311 1.72575 4.20838C1.72575 4.49097 1.91406 4.69186 2.19665 4.69186H4.14906L3.48343 8.00659H1.45575C1.11022 8.00659 0.871826 8.27016 0.871826 8.61543C0.871826 8.89802 1.06013 9.09891 1.34272 9.09891ZM4.5945 8.00659L5.26656 4.69186H8.23575L7.56397 8.00659H4.5945Z" fill="black"/>
</svg>
