<svg width="15" height="11" viewBox="0 0 15 11" fill="none" xmlns="http://www.w3.org/2000/svg">
<path d="M1.5 11C1.0875 11 0.7345 10.8655 0.441 10.5964C0.1475 10.3274 0.0005 10.0036 0 9.625V1.375C0 0.996875 0.147 0.673292 0.441 0.40425C0.735 0.135208 1.088 0.000458333 1.5 0H13.5C13.9125 0 14.2657 0.13475 14.5597 0.40425C14.8537 0.67375 15.0005 0.997333 15 1.375V9.625C15 10.0031 14.8532 10.3269 14.5597 10.5964C14.2662 10.8659 13.913 11.0005 13.5 11H1.5ZM7.5 6.06719C7.5625 6.06719 7.62825 6.05848 7.69725 6.04106C7.76625 6.02364 7.83175 5.99798 7.89375 5.96406L13.2 2.92187C13.3 2.86458 13.375 2.79308 13.425 2.70737C13.475 2.62167 13.5 2.52702 13.5 2.42344C13.5 2.19427 13.3937 2.0224 13.1812 1.90781C12.9688 1.79323 12.75 1.79896 12.525 1.925L7.5 4.8125L2.475 1.925C2.25 1.79896 2.03125 1.79621 1.81875 1.91675C1.60625 2.03729 1.5 2.20619 1.5 2.42344C1.5 2.53802 1.525 2.6384 1.575 2.72456C1.625 2.81073 1.7 2.8765 1.8 2.92187L7.10625 5.96406C7.16875 5.99844 7.2345 6.02433 7.3035 6.04175C7.3725 6.05917 7.438 6.06765 7.5 6.06719Z" fill="black"/>
</svg>
