<svg width="15" height="15" viewBox="0 0 15 15" fill="none" xmlns="http://www.w3.org/2000/svg">
<path d="M11.6119 8.12341C11.4638 7.97545 11.2631 7.89233 11.0538 7.89233C10.8446 7.89233 10.6438 7.97545 10.4958 8.12341L9.23774 9.38145C8.65447 9.20782 7.56607 8.8132 6.87626 8.12341C6.18644 7.43362 5.7918 6.34527 5.61817 5.76202L6.87626 4.50399C7.02422 4.35598 7.10734 4.15527 7.10734 3.946C7.10734 3.73672 7.02422 3.53601 6.87626 3.38801L3.71919 0.231077C3.57118 0.0831183 3.37047 0 3.16118 0C2.9519 0 2.75118 0.0831183 2.60317 0.231077L0.462681 2.37148C0.16276 2.67139 -0.00614322 3.08337 0.000170911 3.50403C0.018324 4.6279 0.315877 8.53144 3.39244 11.6079C6.46899 14.6843 10.3727 14.9811 11.4974 15H11.5195C11.9362 15 12.3301 14.8358 12.6284 14.5375L14.7689 12.3971C14.9169 12.2491 15 12.0484 15 11.8391C15 11.6298 14.9169 11.4291 14.7689 11.2811L11.6119 8.12341ZM11.5116 13.4207C10.5266 13.4042 7.15644 13.1398 4.50846 10.4911C1.85179 7.83455 1.59449 4.45269 1.5787 3.48745L3.16118 1.90504L5.20222 3.946L4.1817 4.96648C4.08893 5.05917 4.02072 5.17352 3.98324 5.29919C3.94576 5.42486 3.94019 5.55789 3.96702 5.68626C3.98596 5.77702 4.44926 7.92926 5.75944 9.23939C7.06963 10.5495 9.22195 11.0128 9.31272 11.0317C9.44101 11.0594 9.5742 11.0543 9.7 11.0169C9.8258 10.9795 9.94016 10.9111 10.0325 10.8179L11.0538 9.79737L13.0949 11.8383L11.5116 13.4207Z" fill="black"/>
</svg>
